<svg width="104" height="105" viewBox="0 0 104 105" fill="none" xmlns="http://www.w3.org/2000/svg">
<path fill-rule="evenodd" clip-rule="evenodd" d="M47.4957 26.0093C43.2776 26.0093 39.8582 29.4287 39.8582 33.6468V59.177L37.7736 57.5415C34.2916 54.8094 29.2857 55.2549 26.3409 58.5589C23.7517 61.4638 23.5019 65.7684 25.7377 68.9532L37.005 85.0038C39.0074 87.8563 40.4365 91.0705 41.2131 94.468C42.25 99.0046 46.2856 102.222 50.9391 102.222H65.8546C71.9183 102.222 77.1766 98.0297 78.5277 92.1185L79.1577 89.3625C83.1833 83.961 85.3582 77.4039 85.3582 70.6665V60.2968H85.3577V59.9718C85.3577 55.7537 81.9383 52.3343 77.7202 52.3343C76.7664 52.3343 75.8534 52.5091 75.0115 52.8285C74.1243 49.593 71.1624 47.2155 67.6452 47.2155C66.6407 47.2155 65.6815 47.4095 64.8029 47.7619C63.7791 44.7507 60.9277 42.5843 57.5702 42.5843C56.7181 42.5843 55.8985 42.7238 55.1332 42.9813V33.6468C55.1332 29.4287 51.7137 26.0093 47.4957 26.0093ZM75.2827 59.9718V60.703V64.8468C75.2827 66.2827 74.1187 67.4468 72.6827 67.4468C71.2468 67.4468 70.0827 66.2827 70.0827 64.8468V60.703V59.9718V54.853C70.0827 53.5068 68.9914 52.4155 67.6452 52.4155C66.299 52.4155 65.2077 53.5068 65.2077 54.853V58.103V60.703C65.2077 62.139 64.0437 63.303 62.6077 63.303C61.1718 63.303 60.0077 62.139 60.0077 60.703V58.103V54.853V50.2218C60.0077 48.8756 58.9164 47.7843 57.5702 47.7843C56.2396 47.7843 55.158 48.8505 55.1332 50.1752V51.3593H55.1327V58.103C55.1327 59.539 53.9687 60.703 52.5327 60.703C51.0968 60.703 49.9327 59.539 49.9327 58.103V50.2218L49.9332 50.1393V33.6468C49.9332 32.3006 48.8418 31.2093 47.4957 31.2093C46.1495 31.2093 45.0582 32.3006 45.0582 33.6468V64.5218C45.0582 65.5168 44.4903 66.4246 43.5955 66.8598C42.7007 67.2951 41.636 67.1815 40.8532 66.5673L34.5638 61.6325C33.2416 60.5951 31.3409 60.7643 30.2227 62.0188C29.2396 63.1218 29.1448 64.7563 29.9937 65.9655L41.261 82.0162C43.6503 85.4198 45.3557 89.2553 46.2824 93.3093C46.7788 95.4814 48.711 97.0218 50.9391 97.0218H65.8546C69.4928 97.0218 72.6478 94.5066 73.4585 90.9598L74.0983 88.1607C74.2535 87.4817 74.5491 86.8427 74.9661 86.2849C78.3368 81.7754 80.1581 76.2965 80.1581 70.6665V64.8949C80.1579 64.8789 80.1577 64.8629 80.1577 64.8468V59.9718C80.1577 58.6256 79.0664 57.5343 77.7202 57.5343C76.374 57.5343 75.2827 58.6256 75.2827 59.9718Z" fill="white"/>
<path d="M72.9024 38.8346C73.6113 35.889 73.8136 32.7687 73.4226 29.5845C71.6726 15.3321 58.7002 5.1969 44.4478 6.94688C30.1954 8.69685 20.0602 21.6693 21.8102 35.9217C22.4081 40.7913 24.3162 45.1803 27.1377 48.7789" stroke="white" stroke-width="5.2" stroke-linecap="round"/>
<path d="M34.1456 37.9727C33.6066 36.5807 33.2758 35.0807 33.1935 33.5089C32.776 25.5424 38.8956 18.7458 46.8621 18.3283C54.8287 17.9108 61.6253 24.0304 62.0428 31.997C62.1251 33.5688 61.953 35.0951 61.5624 36.5359" stroke="white" stroke-width="5.2" stroke-linecap="round"/>
</svg>
