<svg width="65" height="64" viewBox="0 0 65 64" fill="none" xmlns="http://www.w3.org/2000/svg">
<path fill-rule="evenodd" clip-rule="evenodd" d="M18.9366 18.6862C19.978 17.6448 21.6665 17.645 22.7078 18.6864L32.2501 28.23L41.7924 18.6864C42.8337 17.645 44.5221 17.6448 45.5636 18.6862C46.6051 19.7275 46.6052 21.4159 45.5639 22.4574L36.0211 32.0015L45.5629 41.5447C46.6043 42.5861 46.6041 44.2746 45.5627 45.3159C44.5212 46.3572 42.8328 46.3571 41.7914 45.3157L32.2501 35.773L22.7087 45.3157C21.6674 46.3571 19.979 46.3572 18.9375 45.3159C17.896 44.2746 17.8959 42.5861 18.9372 41.5447L28.4791 32.0015L18.9363 22.4574C17.895 21.4159 17.8951 19.7275 18.9366 18.6862Z" fill="#7C7E92" fill-opacity="0.56"/>
<circle cx="32.25" cy="32" r="29.335" stroke="#7C7E92" stroke-opacity="0.56" stroke-width="5.33"/>
</svg>
